<svg xmlns="http://www.w3.org/2000/svg" width="24" height="24"
     viewBox="0 0 24 24" fill="currentColor" aria-label="GitHub">
  <path d="M12 .5C5.73.5.5 5.73.5 12c0 5.09 3.29 9.39 7.86 10.91.57.1.78-.25.78-.55
  0-.27-.01-1.17-.02-2.12-3.2.7-3.87-1.54-3.87-1.54-.53-1.35-1.29-1.71-1.29-1.71
  -1.06-.73.08-.72.08-.72 1.17.08 1.78 1.2 1.78 1.2
  1.04 1.78 2.73 1.27 3.4.97.1-.75.41-1.27.75-1.56
  -2.55-.29-5.23-1.27-5.23-5.67 0-1.25.45-2.27 1.19-3.07
  -.12-.29-.52-1.46.11-3.05 0 0 .97-.31 3.18 1.17
  .92-.26 1.9-.39 2.88-.39.98 0 1.96.13 2.88.39
  2.21-1.48 3.18-1.17 3.18-1.17.63 1.59.23 2.76.11 3.05
  .74.8 1.19 1.82 1.19 3.07 0 4.41-2.69 5.37-5.25 5.65
  .42.36.8 1.08.8 2.18 0 1.58-.01 2.85-.01 3.24
  0 .3.21.66.79.55A11.51 11.51 0 0 0 23.5 12
  C23.5 5.73 18.27.5 12 .5z"/>
</svg>
